<svg width="32" height="32" viewBox="0 0 32 32" fill="none" xmlns="http://www.w3.org/2000/svg">
  <!-- Black background circle -->
  <circle cx="16" cy="16" r="16" fill="#000000"/>
  <!-- Globe base with gradient effect -->
  <circle cx="16" cy="16" r="14" fill="url(#globeGradient)"/>
  <!-- Grid lines -->
  <path d="M 16 2 Q 16 8 16 16 Q 16 24 16 30" stroke="#000000" stroke-width="1.5" fill="none"/>
  <path d="M 2 16 Q 8 16 16 16 Q 24 16 30 16" stroke="#000000" stroke-width="1.5" fill="none"/>
  <path d="M 8 2 Q 12 8 16 16 Q 20 24 24 30" stroke="#000000" stroke-width="1" fill="none"/>
  <path d="M 24 2 Q 20 8 16 16 Q 12 24 8 30" stroke="#000000" stroke-width="1" fill="none"/>
  <!-- Letter G -->
  <path d="M 20 10 Q 20 8 18 8 L 12 8 Q 10 8 10 10 L 10 14 Q 10 16 12 16 L 16 16 L 16 20 Q 16 22 14 22 L 10 22" stroke="#FFFFFF" stroke-width="2.5" stroke-linecap="round" stroke-linejoin="round" fill="none"/>
  <line x1="16" y1="16" x2="18" y2="16" stroke="#FFFFFF" stroke-width="2.5" stroke-linecap="round"/>
  <!-- Gradient definition -->
  <defs>
    <linearGradient id="globeGradient" x1="0%" y1="0%" x2="100%" y2="100%">
      <stop offset="0%" style="stop-color:#00CED1;stop-opacity:1" />
      <stop offset="100%" style="stop-color:#008B8B;stop-opacity:1" />
    </linearGradient>
  </defs>
</svg>

